<svg version="1.1" id="Capa_1" xmlns="http://www.w3.org/2000/svg" xmlns:xlink="http://www.w3.org/1999/xlink" x="0px" y="0px" width="640px" height="640px" viewBox="0 0 640 640" enable-background="new 0 0 640 640" xml:space="preserve">
 <g>
  <title>Layer 1</title>
  <path d="m392,109c0,26.5 -21.5,48 -48,48s-48,-21.5 -48,-48s21.5,-48 48,-48s48,21.5 48,48zm-16,80h-64c-17.688019,0 -32,14.313004 -32,32v128h32v128h64v-128h32v-128c0,-17.686996 -14.312012,-32 -32,-32zm32,195.406006v32.313019c74.531006,8.812988 128,32.437988 128,60.280975c0,35.343994 -85.968994,64 -192,64s-192,-28.656006 -192,-64c0,-27.843994 53.5,-51.468994 128,-60.281006v-32.312988c-86.813004,9.5 -160,39.125 -160,92.593994c0,66.312988 112.5,96 224,96s224,-29.687988 224,-96c0,-53.468994 -73.187012,-83.093994 -160,-92.593994z" id="svg_1" fill="black"/>
 </g>
</svg>