<svg width="511.623" height="511.623" xmlns="http://www.w3.org/2000/svg">
 <g>
  <title>Layer 1</title>
  <g transform="rotate(180 255.8119964599609,255.8114929199219) " id="svg_1">
   <path id="svg_2" d="m455.38699,182.438c-11.23102,-31.21201 -16.84399,-52.435 -16.84399,-63.666v-82.225c0,-10.09 -3.58002,-18.704 -10.71201,-25.84c-7.13901,-7.136 -15.75598,-10.707 -25.84399,-10.707h-182.716c-10.088,0 -18.702,3.571 -25.841,10.707c-7.133,7.14 -10.70499,15.754 -10.70499,25.84v82.225c0,1.902 -0.42801,3.945 -1.287,6.13599s-2.19,4.43 -3.99901,6.71101c-1.80699,2.28099 -3.521,4.427 -5.13699,6.423s-3.756,4.28299 -6.423,6.851c-2.66299,2.56799 -4.709,4.51799 -6.136,5.85199c-1.425,1.334 -3.472,3.14 -6.13899,5.42401c-2.664,2.284 -4.283,3.62 -4.854,3.99899c-14.082,12.37 -26.362,21.888 -36.829,28.549c-3.99599,2.474 -9.897,5.614 -17.7,9.41901c-7.804,3.80901 -14.655,7.33099 -20.557,10.56599c-5.901,3.237 -11.897,7.093 -17.987,11.563c-6.091,4.47099 -10.8,9.707 -14.134,15.703c-3.333,5.996 -4.996,12.60899 -4.996,19.842c0,23.79102 6.423,43.444 19.273,58.957c12.847,15.513 30.784,23.27399 53.815,23.27399c14.087,0 26.268,-2.09799 36.54499,-6.28299v106.77802c0,19.79398 7.233,36.92499 21.70001,51.39499c14.465,14.46201 31.49899,21.69199 51.10599,21.69199c19.98401,0 37.211,-7.18298 51.66901,-21.54898c14.47598,-14.37701 21.703,-31.55301 21.703,-51.53799v-48.25201c12.36798,-1.33099 23.68799,-4.85599 33.96899,-10.56799c4.004,0.57498 8.09702,0.85599 12.27802,0.85599c19.41098,0 36.35098,-5.80499 50.819,-17.41599l1.431,0.28101c26.64798,0.194 47.34198,-8.08701 62.09198,-24.83902c14.75601,-16.74399 22.12402,-38.633 22.12402,-65.66098c0.00598,-24.17001 -6.55301,-54.34302 -19.68402,-90.49901zm-84.51401,-140.47701c3.62,-3.617 7.89801,-5.426 12.84702,-5.426s9.23199,1.809 12.854,5.426c3.61298,3.619 5.42099,7.902 5.42099,12.85c0,4.949 -1.811,9.23 -5.42099,12.847c-3.621,3.61501 -7.90503,5.424 -12.854,5.424s-9.22702,-1.809 -12.84702,-5.424c-3.61398,-3.617 -5.42099,-7.895 -5.42099,-12.847c0,-4.952 1.80701,-9.235 5.42099,-12.85zm55.96902,270.80402c-7.81201,9.233 -19.79999,13.84698 -35.97699,13.84698c-6.09201,0 -11.423,-0.37698 -15.98801,-1.14398c-3.04599,5.716 -8.04199,10.23199 -14.98901,13.565c-6.94699,3.32599 -13.94199,4.99698 -20.98398,4.99698c-7.03601,0 -13.60703,-1.71198 -19.698,-5.14099c-9.51401,10.08899 -20.83801,15.13303 -33.97202,15.13303c-10.85199,0 -20.66,-3.34003 -29.412,-9.99902v94.49902c0,9.89697 -3.61499,18.46597 -10.84999,25.69998c-7.233,7.23102 -15.8,10.85501 -25.69701,10.85501c-9.70799,0 -18.22501,-3.724 -25.55299,-11.14301c-7.33,-7.41901 -10.992,-15.88599 -10.992,-25.41299v-164.44403c-3.80901,0 -8.423,1.42801 -13.849,4.28101c-5.424,2.85699 -10.66,5.996 -15.703,9.422c-5.04199,3.42499 -11.51601,6.56601 -19.414,9.42099c-7.902,2.854 -15.93999,4.27701 -24.126,4.27701c-12.753,0 -22.029,-4.229 -27.836,-12.703c-5.806,-8.466 -8.708,-19.465 -8.708,-32.972c0,-1.521 1.094,-3.28699 3.284,-5.28c2.18999,-1.99501 5.092,-4.04199 8.708,-6.136c3.617,-2.093 6.995,-3.99501 10.134,-5.71001c3.14,-1.709 6.567,-3.472 10.279,-5.28c3.711,-1.80899 5.85201,-2.806 6.423,-2.996c8.757,-4.56999 15.23,-8.18199 19.41699,-10.84999c12.181,-7.61101 25.981,-18.27101 41.39601,-31.97701c0.95299,-0.759 2.284,-1.903 3.99899,-3.427c6.28,-5.51801 11.41701,-10.18298 15.41501,-13.98799c3.99899,-3.80501 8.37599,-8.563 13.13499,-14.27701c4.758,-5.711 8.276,-11.65399 10.562,-17.843c2.284,-6.189 3.425,-12.612 3.425,-19.27299v-9.136h182.72301v9.136c0,13.70599 3.04599,29.597 9.13699,47.679c6.09201,18.08299 12.18301,36.545 18.27402,55.38899c6.09198,18.843 9.138,36.26001 9.138,52.24802c0.00296,16.556 -3.90802,29.45001 -11.70102,38.68301z"/>
  </g>
 </g>
</svg>